<?xml version="1.0" encoding="utf-8"?>
<!-- Generator: Adobe Illustrator 25.4.1, SVG Export Plug-In . SVG Version: 6.00 Build 0)  -->
<svg version="1.1" id="Layer_1" xmlns="http://www.w3.org/2000/svg" xmlns:xlink="http://www.w3.org/1999/xlink" x="0px" y="0px"
	 viewBox="0 0 228.78 197.39" style="enable-background:new 0 0 228.78 197.39;" xml:space="preserve">
<style type="text/css">
	.st0{fill:#333332;}
	.st1{fill:#EF7D00;}
</style>
<g>
	<g>
		<path class="st0" d="M14.37,149.23h4.72l2.18,23.94h0.09l2.31-23.94h5.34l2.31,23.94h0.09l2.18-23.94h4.23l-3.16,31.14h-6.1
			l-2.22-21h-0.09l-2.22,21h-6.5L14.37,149.23z"/>
		<path class="st0" d="M43.47,149.23h6.63l5.07,31.14h-4.89l-0.89-6.18v0.09h-5.56l-0.89,6.09H38.4L43.47,149.23z M48.81,170.05
			l-2.18-15.39h-0.09l-2.14,15.39H48.81z"/>
		<path class="st0" d="M59.31,153.68h-5.12v-4.45h15.13v4.45H64.2v26.69h-4.89V153.68z"/>
		<path class="st0" d="M73.03,178.81c-1.23-1.33-1.85-3.22-1.85-5.65v-16.73c0-2.43,0.62-4.32,1.85-5.65c1.23-1.33,3.02-2,5.36-2
			c2.34,0,4.13,0.67,5.36,2c1.23,1.33,1.85,3.22,1.85,5.65v3.29h-4.63v-3.6c0-1.93-0.82-2.89-2.45-2.89c-1.63,0-2.45,0.96-2.45,2.89
			v17.4c0,1.9,0.82,2.85,2.45,2.85c1.63,0,2.45-0.95,2.45-2.85v-4.76h4.63v4.4c0,2.43-0.62,4.32-1.85,5.65c-1.23,1.33-3.02,2-5.36,2
			C76.05,180.82,74.26,180.15,73.03,178.81z"/>
		<path class="st0" d="M88.53,149.23h4.89v12.68h5.25v-12.68h4.89v31.14h-4.89v-14.01h-5.25v14.01h-4.89V149.23z"/>
		<path class="st0" d="M114.34,149.23h7.21c2.43,0,4.26,0.65,5.47,1.96c1.22,1.31,1.82,3.22,1.82,5.74v3.07
			c0,2.52-0.61,4.43-1.82,5.74c-1.22,1.31-3.04,1.96-5.47,1.96h-2.31v12.68h-4.89V149.23z M121.55,163.24c0.8,0,1.4-0.22,1.8-0.67
			c0.4-0.44,0.6-1.2,0.6-2.27v-3.69c0-1.07-0.2-1.82-0.6-2.27c-0.4-0.44-1-0.67-1.8-0.67h-2.31v9.57H121.55z"/>
		<path class="st0" d="M131.51,149.23h4.89v26.69h8.05v4.45h-12.95V149.23z"/>
		<path class="st0" d="M150.77,149.23h6.63l5.07,31.14h-4.89l-0.89-6.18v0.09h-5.56l-0.89,6.09h-4.54L150.77,149.23z M156.11,170.05
			l-2.18-15.39h-0.09l-2.13,15.39H156.11z"/>
		<path class="st0" d="M164.83,149.23h6.14l4.76,18.64h0.09v-18.64h4.36v31.14h-5.03l-5.87-22.73h-0.09v22.73h-4.36V149.23z"/>
		<path class="st0" d="M183.83,149.23h13.35v4.45h-8.45v8.23h6.72v4.45h-6.72v9.56h8.45v4.45h-13.35V149.23z"/>
		<path class="st0" d="M203.8,153.68h-5.12v-4.45h15.13v4.45h-5.12v26.69h-4.89V153.68z"/>
	</g>
	
		<ellipse transform="matrix(0.2374 -0.9714 0.9714 0.2374 11.4194 171.0356)" class="st0" cx="114.64" cy="78.24" rx="56.8" ry="56.8"/>
	<path class="st1" d="M73.98,76.76v2.12c0,0,0,0,0,0v7.74c0,0,0,0,0,0c0.35,0.38,0.77,0.73,1.23,1.03c2,1.28,4.21,1.64,6.45,1.79
		c5.58,0.37,11.06-0.59,16.49-1.89c8.55-2.04,16.83-5.12,24.87-9.03c2.25-1.09,4.5-2.21,6.65-3.52c3-1.8,5.99-3.65,8.83-5.73
		c2.97-2.18,5.81-4.63,7.92-7.96c0.51-0.81,0.95-1.71,1.28-2.64c0.46-1.32,0.51-2.63,0.15-3.78c0,0,0-0.01,0-0.01l-8.3-4.79
		c0,0-0.01,0-0.01,0l-0.38-0.22c0,0,0,0,0.01,0l-9.13-5.27L88.92,20.84c-6.64-3.83-14.94,0.96-14.94,8.62L73.98,76.76
		C73.98,76.76,73.98,76.76,73.98,76.76z"/>
	<path class="st1" d="M175.73,72.88l-14.15-8.17c0,0,0,0,0,0c-0.09,0.11-0.18,0.22-0.26,0.33c-3.03,3.81-6.65,6.8-10.45,9.48
		c-2.41,1.7-4.91,3.27-7.41,4.83c-6.67,4.18-13.68,7.5-20.8,10.49c-8.11,3.39-16.38,6.17-24.84,8.15
		c-6.22,1.45-12.48,2.53-18.86,2.46c-0.14,0-0.28,0-0.42-0.01c0,0,0,0,0,0l0,28.56c0,7.67,8.3,12.46,14.94,8.62l41.14-23.75
		l41.14-23.75C182.37,86.3,182.37,76.71,175.73,72.88z"/>
	<path class="st0" d="M54.04,83.08c-1.75,2.58-3.85,5.29-5.54,8.3c-0.91,1.63-1.45,3.74-1.59,5.68c-0.28,3.86,1.56,6.59,4.41,8.43
		c3.47,2.24,7.32,2.86,11.21,3.12c9.72,0.64,19.24-1.03,28.71-3.29c14.9-3.56,29.3-8.93,43.3-15.73c3.91-1.9,7.82-3.86,11.58-6.12
		c5.22-3.14,10.43-6.35,15.38-9.99c5.17-3.8,10.12-8.05,13.79-13.85c0.89-1.41,1.66-2.98,2.23-4.59c1.69-4.78,0.14-9.4-3.81-11.89
		c-3.39-2.14-7.11-2.69-10.87-3.12c-0.27-0.03-0.53-0.04-0.81-0.23c0.99-0.14,1.97-0.29,2.96-0.41c0.99-0.12,1.99-0.23,2.99-0.32
		c6.88-0.59,13.76-0.9,20.57,0.71c2.15,0.51,4.3,1.38,6.27,2.5c3.15,1.77,4,4.61,2.78,8.37c-0.93,2.89-2.51,5.33-4.3,7.59
		c-5.28,6.63-11.57,11.83-18.2,16.5c-4.21,2.97-8.56,5.69-12.9,8.41c-11.61,7.27-23.8,13.06-36.21,18.26
		c-14.12,5.91-28.52,10.75-43.26,14.19c-10.82,2.53-21.72,4.4-32.81,4.29c-4.58-0.05-9.17-0.34-13.54-2.08
		c-1.61-0.64-3.17-1.59-4.56-2.7c-1.89-1.51-2.22-3.78-1.65-6.25c0.7-3.02,2.26-5.47,4-7.78C38.88,94.8,44.66,90,50.61,85.43
		c0.61-0.47,1.21-0.94,1.84-1.36C53.07,83.65,53.72,83.28,54.04,83.08z"/>
	<path class="st1" d="M150.24,72.07c-2.58,1.82-5.25,3.5-7.92,5.16c-7.13,4.46-14.62,8.02-22.24,11.22
		c-8.67,3.63-17.51,6.6-26.56,8.72c-6.65,1.55-13.34,2.7-20.16,2.63c-0.15,0-0.3,0-0.45-0.01c-2.66-0.05-5.31-0.27-7.86-1.27
		c-0.99-0.39-1.95-0.98-2.8-1.66c-1.16-0.93-1.36-2.32-1.01-3.84c0.43-1.85,1.39-3.35,2.45-4.77c2.67-3.54,5.88-6.32,9.22-8.92
		c-0.46,0.36-0.59,2.5-0.72,3.05c-0.65,2.81-1.04,5.99,1.39,8.08c2.06,1.76,4.91,2.24,7.53,2.42c5.96,0.39,11.82-0.63,17.63-2.02
		c9.14-2.19,17.99-5.48,26.58-9.66c2.41-1.17,4.81-2.37,7.11-3.76c3.21-1.93,6.4-3.9,9.44-6.13c3.18-2.33,6.21-4.94,8.47-8.51
		c0.55-0.87,1.02-1.83,1.37-2.82c0.5-1.41,0.54-2.81,0.16-4.04c-1.16-3.8-5.44-4.73-8.89-5.13l-0.4-0.23
		c0.48-0.08,0.95-0.15,1.43-0.21c0.61-0.07,1.22-0.14,1.83-0.19c4.22-0.37,8.45-0.56,12.63,0.44c1.32,0.31,2.64,0.85,3.85,1.53
		c1.94,1.09,2.46,2.83,1.71,5.14c-0.52,1.63-1.38,3.02-2.37,4.3c-0.09,0.12-0.19,0.23-0.28,0.35"/>
</g>
</svg>
